<mxfile host="app.diagrams.net" modified="2024-06-23T11:32:06.942Z" agent="Mozilla/5.0 (Windows NT 10.0; Win64; x64) AppleWebKit/537.36 (KHTML, like Gecko) Chrome/126.0.0.0 Safari/537.36 Edg/126.0.0.0" etag="DCoxw9wo-UEY8rcJ617g" version="24.6.2" type="github">
  <diagram id="6a731a19-8d31-9384-78a2-239565b7b9f0" name="Page-1">
    <mxGraphModel dx="2757" dy="1845" grid="1" gridSize="10" guides="1" tooltips="1" connect="1" arrows="1" fold="1" page="1" pageScale="1" pageWidth="1169" pageHeight="827" background="none" math="0" shadow="0">
      <root>
        <mxCell id="0" />
        <mxCell id="1" parent="0" />
        <mxCell id="s1DxM4IGI6YzKNdG_7vs-56" value="用户进入改签页面" style="whiteSpace=wrap;strokeWidth=2;" vertex="1" parent="1">
          <mxGeometry x="121.66666666666666" width="143" height="34" as="geometry" />
        </mxCell>
        <mxCell id="s1DxM4IGI6YzKNdG_7vs-57" value="订单是否可改签" style="rhombus;strokeWidth=2;whiteSpace=wrap;" vertex="1" parent="1">
          <mxGeometry x="112.66666666666666" y="134" width="161" height="161" as="geometry" />
        </mxCell>
        <mxCell id="s1DxM4IGI6YzKNdG_7vs-58" value="查询可改签行程" style="whiteSpace=wrap;strokeWidth=2;" vertex="1" parent="1">
          <mxGeometry x="45.5" y="395" width="127" height="34" as="geometry" />
        </mxCell>
        <mxCell id="s1DxM4IGI6YzKNdG_7vs-59" value="显示不可改签信息" style="whiteSpace=wrap;strokeWidth=2;" vertex="1" parent="1">
          <mxGeometry x="273.67" y="395" width="144" height="34" as="geometry" />
        </mxCell>
        <mxCell id="s1DxM4IGI6YzKNdG_7vs-60" value="展示可改签行程列表" style="whiteSpace=wrap;strokeWidth=2;" vertex="1" parent="1">
          <mxGeometry x="72.69444444444446" y="529" width="159" height="34" as="geometry" />
        </mxCell>
        <mxCell id="s1DxM4IGI6YzKNdG_7vs-61" value="用户选择改签方案" style="whiteSpace=wrap;strokeWidth=2;" vertex="1" parent="1">
          <mxGeometry x="123.88888888888891" y="663" width="143" height="34" as="geometry" />
        </mxCell>
        <mxCell id="s1DxM4IGI6YzKNdG_7vs-62" value="方案是否有效" style="rhombus;strokeWidth=2;whiteSpace=wrap;" vertex="1" parent="1">
          <mxGeometry x="93" y="797" width="146" height="146" as="geometry" />
        </mxCell>
        <mxCell id="s1DxM4IGI6YzKNdG_7vs-63" value="提交改签请求" style="whiteSpace=wrap;strokeWidth=2;" vertex="1" parent="1">
          <mxGeometry x="15" y="1043" width="111" height="34" as="geometry" />
        </mxCell>
        <mxCell id="s1DxM4IGI6YzKNdG_7vs-64" value="提示无效方案，重新选择" style="whiteSpace=wrap;strokeWidth=2;" vertex="1" parent="1">
          <mxGeometry x="156" y="1043" width="191" height="34" as="geometry" />
        </mxCell>
        <mxCell id="s1DxM4IGI6YzKNdG_7vs-65" value="请求是否成功" style="rhombus;strokeWidth=2;whiteSpace=wrap;" vertex="1" parent="1">
          <mxGeometry x="60.83333333333334" y="1177" width="145" height="145" as="geometry" />
        </mxCell>
        <mxCell id="s1DxM4IGI6YzKNdG_7vs-66" value="进入支付流程" style="whiteSpace=wrap;strokeWidth=2;" vertex="1" parent="1">
          <mxGeometry x="22.5" y="1422" width="111" height="34" as="geometry" />
        </mxCell>
        <mxCell id="s1DxM4IGI6YzKNdG_7vs-67" value="显示改签请求失败信息" style="whiteSpace=wrap;strokeWidth=2;" vertex="1" parent="1">
          <mxGeometry x="163.5" y="1422" width="176" height="34" as="geometry" />
        </mxCell>
        <mxCell id="s1DxM4IGI6YzKNdG_7vs-68" value="支付是否成功" style="rhombus;strokeWidth=2;whiteSpace=wrap;" vertex="1" parent="1">
          <mxGeometry x="77.5" y="1556" width="145" height="145" as="geometry" />
        </mxCell>
        <mxCell id="s1DxM4IGI6YzKNdG_7vs-69" value="更新订单状态，通知用户" style="whiteSpace=wrap;strokeWidth=2;" vertex="1" parent="1">
          <mxGeometry y="1801" width="191" height="34" as="geometry" />
        </mxCell>
        <mxCell id="s1DxM4IGI6YzKNdG_7vs-70" value="支付失败处理" style="whiteSpace=wrap;strokeWidth=2;" vertex="1" parent="1">
          <mxGeometry x="221" y="1801" width="111" height="34" as="geometry" />
        </mxCell>
        <mxCell id="s1DxM4IGI6YzKNdG_7vs-71" value="通知用户支付失败" style="whiteSpace=wrap;strokeWidth=2;" vertex="1" parent="1">
          <mxGeometry x="109" y="1935" width="144" height="34" as="geometry" />
        </mxCell>
        <mxCell id="s1DxM4IGI6YzKNdG_7vs-72" value="结束" style="whiteSpace=wrap;strokeWidth=2;" vertex="1" parent="1">
          <mxGeometry x="208.5" y="2069" width="47" height="34" as="geometry" />
        </mxCell>
        <mxCell id="s1DxM4IGI6YzKNdG_7vs-73" value="" style="curved=1;startArrow=none;endArrow=block;exitX=0.5;exitY=0.99;entryX=0.5;entryY=0;rounded=0;noEdgeStyle=1;orthogonal=1;" edge="1" parent="1" source="s1DxM4IGI6YzKNdG_7vs-56" target="s1DxM4IGI6YzKNdG_7vs-57">
          <mxGeometry relative="1" as="geometry">
            <Array as="points">
              <mxPoint x="193.16666666666663" y="46" />
              <mxPoint x="193.16666666666663" y="122" />
            </Array>
          </mxGeometry>
        </mxCell>
        <mxCell id="s1DxM4IGI6YzKNdG_7vs-74" value="是" style="curved=1;startArrow=none;endArrow=block;exitX=0.2;exitY=1;entryX=0.5;entryY=0;rounded=0;noEdgeStyle=1;orthogonal=1;" edge="1" parent="1" source="s1DxM4IGI6YzKNdG_7vs-57" target="s1DxM4IGI6YzKNdG_7vs-58">
          <mxGeometry relative="1" as="geometry">
            <Array as="points">
              <mxPoint x="155.41666666666666" y="307" />
              <mxPoint x="109" y="383" />
            </Array>
          </mxGeometry>
        </mxCell>
        <mxCell id="s1DxM4IGI6YzKNdG_7vs-75" value="否" style="curved=1;startArrow=none;endArrow=block;exitX=1;exitY=0.68;entryX=0.5;entryY=0.01;rounded=0;noEdgeStyle=1;orthogonal=1;" edge="1" parent="1" source="s1DxM4IGI6YzKNdG_7vs-57" target="s1DxM4IGI6YzKNdG_7vs-59">
          <mxGeometry relative="1" as="geometry">
            <Array as="points">
              <mxPoint x="230.91666666666663" y="307" />
              <mxPoint x="274.5" y="383" />
            </Array>
          </mxGeometry>
        </mxCell>
        <mxCell id="s1DxM4IGI6YzKNdG_7vs-76" value="" style="curved=1;startArrow=none;endArrow=block;exitX=0.5;exitY=0.99;entryX=0.5;entryY=-0.01;rounded=0;noEdgeStyle=1;orthogonal=1;" edge="1" parent="1" source="s1DxM4IGI6YzKNdG_7vs-58" target="s1DxM4IGI6YzKNdG_7vs-60">
          <mxGeometry relative="1" as="geometry">
            <Array as="points">
              <mxPoint x="109" y="441" />
              <mxPoint x="152.19444444444446" y="517" />
            </Array>
          </mxGeometry>
        </mxCell>
        <mxCell id="s1DxM4IGI6YzKNdG_7vs-77" value="" style="curved=1;startArrow=none;endArrow=block;exitX=0.5;exitY=0.98;entryX=0.5;entryY=0.01;rounded=0;noEdgeStyle=1;orthogonal=1;" edge="1" parent="1" source="s1DxM4IGI6YzKNdG_7vs-60" target="s1DxM4IGI6YzKNdG_7vs-61">
          <mxGeometry relative="1" as="geometry">
            <Array as="points">
              <mxPoint x="152.19444444444446" y="575" />
              <mxPoint x="195.3888888888889" y="651" />
            </Array>
          </mxGeometry>
        </mxCell>
        <mxCell id="s1DxM4IGI6YzKNdG_7vs-78" value="" style="curved=1;startArrow=none;endArrow=block;exitX=0.27;exitY=1;entryX=0.5;entryY=0;rounded=0;noEdgeStyle=1;orthogonal=1;" edge="1" parent="1" source="s1DxM4IGI6YzKNdG_7vs-61" target="s1DxM4IGI6YzKNdG_7vs-62">
          <mxGeometry relative="1" as="geometry">
            <Array as="points">
              <mxPoint x="162.1388888888889" y="709" />
              <mxPoint x="166" y="785" />
            </Array>
          </mxGeometry>
        </mxCell>
        <mxCell id="s1DxM4IGI6YzKNdG_7vs-79" value="是" style="curved=1;startArrow=none;endArrow=block;exitX=0.42;exitY=1;entryX=0.5;entryY=-0.01;rounded=0;noEdgeStyle=1;orthogonal=1;" edge="1" parent="1" source="s1DxM4IGI6YzKNdG_7vs-62" target="s1DxM4IGI6YzKNdG_7vs-63">
          <mxGeometry relative="1" as="geometry">
            <Array as="points">
              <mxPoint x="132" y="955" />
              <mxPoint x="70.5" y="1031" />
            </Array>
          </mxGeometry>
        </mxCell>
        <mxCell id="s1DxM4IGI6YzKNdG_7vs-80" value="否" style="curved=1;startArrow=none;endArrow=block;exitX=1;exitY=0.72;entryX=0.36;entryY=-0.01;rounded=0;noEdgeStyle=1;orthogonal=1;" edge="1" parent="1" source="s1DxM4IGI6YzKNdG_7vs-62" target="s1DxM4IGI6YzKNdG_7vs-64">
          <mxGeometry relative="1" as="geometry">
            <Array as="points">
              <mxPoint x="200" y="955" />
              <mxPoint x="206.25" y="1031" />
            </Array>
          </mxGeometry>
        </mxCell>
        <mxCell id="s1DxM4IGI6YzKNdG_7vs-81" value="" style="curved=1;startArrow=none;endArrow=block;exitX=0.6;exitY=-0.01;entryX=1;entryY=0.79;rounded=0;noEdgeStyle=1;orthogonal=1;" edge="1" parent="1" source="s1DxM4IGI6YzKNdG_7vs-64" target="s1DxM4IGI6YzKNdG_7vs-61">
          <mxGeometry relative="1" as="geometry">
            <Array as="points">
              <mxPoint x="296.75" y="1031" />
              <mxPoint x="269" y="993" />
              <mxPoint x="269" y="747" />
              <mxPoint x="228.6388888888889" y="709" />
            </Array>
          </mxGeometry>
        </mxCell>
        <mxCell id="s1DxM4IGI6YzKNdG_7vs-82" value="" style="curved=1;startArrow=none;endArrow=block;exitX=0.5;exitY=0.98;entryX=0.5;entryY=0;rounded=0;noEdgeStyle=1;orthogonal=1;" edge="1" parent="1" source="s1DxM4IGI6YzKNdG_7vs-63" target="s1DxM4IGI6YzKNdG_7vs-65">
          <mxGeometry relative="1" as="geometry">
            <Array as="points">
              <mxPoint x="70.5" y="1089" />
              <mxPoint x="133.33333333333334" y="1165" />
            </Array>
          </mxGeometry>
        </mxCell>
        <mxCell id="s1DxM4IGI6YzKNdG_7vs-83" value="是" style="curved=1;startArrow=none;endArrow=block;exitX=0.01;exitY=1;entryX=0.5;entryY=-0.01;rounded=0;noEdgeStyle=1;orthogonal=1;" edge="1" parent="1" source="s1DxM4IGI6YzKNdG_7vs-65" target="s1DxM4IGI6YzKNdG_7vs-66">
          <mxGeometry relative="1" as="geometry">
            <Array as="points">
              <mxPoint x="99.58333333333334" y="1334" />
              <mxPoint x="78" y="1410" />
            </Array>
          </mxGeometry>
        </mxCell>
        <mxCell id="s1DxM4IGI6YzKNdG_7vs-84" value="否" style="curved=1;startArrow=none;endArrow=block;exitX=1;exitY=0.75;entryX=0.5;entryY=0.01;rounded=0;noEdgeStyle=1;orthogonal=1;" edge="1" parent="1" source="s1DxM4IGI6YzKNdG_7vs-65" target="s1DxM4IGI6YzKNdG_7vs-67">
          <mxGeometry relative="1" as="geometry">
            <Array as="points">
              <mxPoint x="167.08333333333334" y="1334" />
              <mxPoint x="251.5" y="1410" />
            </Array>
          </mxGeometry>
        </mxCell>
        <mxCell id="s1DxM4IGI6YzKNdG_7vs-85" value="" style="curved=1;startArrow=none;endArrow=block;exitX=0.5;exitY=0.98;entryX=0.5;entryY=0;rounded=0;noEdgeStyle=1;orthogonal=1;" edge="1" parent="1" source="s1DxM4IGI6YzKNdG_7vs-66" target="s1DxM4IGI6YzKNdG_7vs-68">
          <mxGeometry relative="1" as="geometry">
            <Array as="points">
              <mxPoint x="78" y="1468" />
              <mxPoint x="150" y="1544" />
            </Array>
          </mxGeometry>
        </mxCell>
        <mxCell id="s1DxM4IGI6YzKNdG_7vs-86" value="是" style="curved=1;startArrow=none;endArrow=block;exitX=0;exitY=0.99;entryX=0.5;entryY=0.01;rounded=0;noEdgeStyle=1;orthogonal=1;" edge="1" parent="1" source="s1DxM4IGI6YzKNdG_7vs-68" target="s1DxM4IGI6YzKNdG_7vs-69">
          <mxGeometry relative="1" as="geometry">
            <Array as="points">
              <mxPoint x="116.25" y="1713" />
              <mxPoint x="95.5" y="1789" />
            </Array>
          </mxGeometry>
        </mxCell>
        <mxCell id="s1DxM4IGI6YzKNdG_7vs-87" value="否" style="curved=1;startArrow=none;endArrow=block;exitX=1;exitY=0.99;entryX=0.5;entryY=-0.01;rounded=0;noEdgeStyle=1;orthogonal=1;" edge="1" parent="1" source="s1DxM4IGI6YzKNdG_7vs-68" target="s1DxM4IGI6YzKNdG_7vs-70">
          <mxGeometry relative="1" as="geometry">
            <Array as="points">
              <mxPoint x="183.75" y="1713" />
              <mxPoint x="276.5" y="1789" />
            </Array>
          </mxGeometry>
        </mxCell>
        <mxCell id="s1DxM4IGI6YzKNdG_7vs-88" value="" style="curved=1;startArrow=none;endArrow=block;exitX=0.5;exitY=0.98;entryX=0.5;entryY=0.01;rounded=0;noEdgeStyle=1;orthogonal=1;" edge="1" parent="1" source="s1DxM4IGI6YzKNdG_7vs-70" target="s1DxM4IGI6YzKNdG_7vs-71">
          <mxGeometry relative="1" as="geometry">
            <Array as="points">
              <mxPoint x="276.5" y="1847" />
              <mxPoint x="181" y="1923" />
            </Array>
          </mxGeometry>
        </mxCell>
        <mxCell id="s1DxM4IGI6YzKNdG_7vs-89" value="" style="curved=1;startArrow=none;endArrow=block;exitX=0.5;exitY=1;entryX=1;entryY=0.42;rounded=0;noEdgeStyle=1;orthogonal=1;" edge="1" parent="1" source="s1DxM4IGI6YzKNdG_7vs-59" target="s1DxM4IGI6YzKNdG_7vs-72">
          <mxGeometry relative="1" as="geometry">
            <Array as="points">
              <mxPoint x="274.5" y="441" />
              <mxPoint x="392" y="479" />
              <mxPoint x="392" y="613" />
              <mxPoint x="392" y="613" />
              <mxPoint x="392" y="747" />
              <mxPoint x="392" y="747" />
              <mxPoint x="392" y="993" />
              <mxPoint x="392" y="993" />
              <mxPoint x="392" y="1127" />
              <mxPoint x="392" y="1127" />
              <mxPoint x="392" y="1372" />
              <mxPoint x="392" y="1372" />
              <mxPoint x="392" y="1506" />
              <mxPoint x="392" y="1506" />
              <mxPoint x="392" y="1751" />
              <mxPoint x="392" y="1751" />
              <mxPoint x="392" y="1885" />
              <mxPoint x="392" y="1885" />
              <mxPoint x="392" y="2019" />
              <mxPoint x="245.875" y="2057" />
            </Array>
          </mxGeometry>
        </mxCell>
        <mxCell id="s1DxM4IGI6YzKNdG_7vs-90" value="" style="curved=1;startArrow=none;endArrow=block;exitX=0.5;exitY=1;entryX=1;entryY=0.22;rounded=0;noEdgeStyle=1;orthogonal=1;" edge="1" parent="1" source="s1DxM4IGI6YzKNdG_7vs-67" target="s1DxM4IGI6YzKNdG_7vs-72">
          <mxGeometry relative="1" as="geometry">
            <Array as="points">
              <mxPoint x="251.5" y="1468" />
              <mxPoint x="362" y="1506" />
              <mxPoint x="362" y="1751" />
              <mxPoint x="362" y="1751" />
              <mxPoint x="362" y="1885" />
              <mxPoint x="362" y="1885" />
              <mxPoint x="362" y="2019" />
              <mxPoint x="236.625" y="2055" />
            </Array>
          </mxGeometry>
        </mxCell>
        <mxCell id="s1DxM4IGI6YzKNdG_7vs-91" value="" style="curved=1;startArrow=none;endArrow=block;exitX=0.5;exitY=1;entryX=0;entryY=0.22;rounded=0;noEdgeStyle=1;orthogonal=1;" edge="1" parent="1" source="s1DxM4IGI6YzKNdG_7vs-71" target="s1DxM4IGI6YzKNdG_7vs-72">
          <mxGeometry relative="1" as="geometry">
            <Array as="points">
              <mxPoint x="181" y="1981" />
              <mxPoint x="227.375" y="2055" />
            </Array>
          </mxGeometry>
        </mxCell>
        <mxCell id="s1DxM4IGI6YzKNdG_7vs-92" value="" style="curved=1;startArrow=none;endArrow=block;exitX=0.5;exitY=1;entryX=0;entryY=0.41;rounded=0;noEdgeStyle=1;orthogonal=1;" edge="1" parent="1" source="s1DxM4IGI6YzKNdG_7vs-69" target="s1DxM4IGI6YzKNdG_7vs-72">
          <mxGeometry relative="1" as="geometry">
            <Array as="points">
              <mxPoint x="95.5" y="1847" />
              <mxPoint x="79" y="1885" />
              <mxPoint x="79" y="2019" />
              <mxPoint x="218.125" y="2057" />
            </Array>
          </mxGeometry>
        </mxCell>
      </root>
    </mxGraphModel>
  </diagram>
</mxfile>
